<svg version="1.1" xmlns="http://www.w3.org/2000/svg" xmlns:xlink="http://www.w3.org/1999/xlink" x="0px" y="0px" viewbox="0 0 100 100" xml:space="preserve">
<path id="angieslist" d="M99.1,37C96.2,27,87.2,20.1,76.7,20.1H23.3c-1.5,0-3,0.2-4.6,0.4C6.7,22.9-1.7,34.7,0.3,46.8c1.6,9.4,7.2,15.7,16.3,18.7c2.7,0.9,5.6,1.1,8.4,1c0.3,0,0.5,0.1,0.7,0.4c2.9,5.8,5.9,11.7,8.9,17.5c0.7,1.5,1.5,3,2.3,4.5c0.1-0.3,0.2-0.5,0.3-0.6c3.4-7,6.9-14.1,10.3-21.1c0.2-0.5,0.5-0.6,1-0.6c9.4,0,18.8,0,28.1,0c1.6,0,3.1-0.1,4.7-0.4C94.5,63.5,102.8,50,99.1,37z M78.5,56c-0.6,0.1-1.2,0.1-1.8,0.1c-11.5,0-23.1,0-34.6,0c-0.5,0-0.7,0.2-0.9,0.6c-1.4,4-2.9,7.9-4.3,11.9c0,0.2-0.1,0.3-0.2,0.5l0,0l0,0l0,0c-0.5-1.4-1-2.8-1.5-4.1c-1-2.8-2-5.6-3-8.4c-0.1-0.4-0.3-0.5-0.7-0.5c-2.7,0-5.4,0-8.1,0c-6.2,0-11.4-4.1-12.8-10.2C9.1,39,14,31.8,21,30.6c0.9-0.1,1.7-0.2,2.6-0.2h53.3c6.6,0,12.1,5,12.8,11.6C90.3,48.9,85.4,55.1,78.5,56z"/>
<path id="facebook" d="M38.4,24c0,2.2,0,12,0,12h-8.8v14.7h8.8v43.8h18.1V50.7h12.2c0,0,1.1-7.1,1.7-14.8c-1.6,0-13.8,0-13.8,0s0-8.6,0-10.1c0-1.5,2-3.5,3.9-3.5c2,0,6.1,0,9.9,0c0-2,0-8.9,0-15.3C65.3,7,59.5,7,57,7C38,7,38.4,21.8,38.4,24z"/>
<path id="flicker" d="M0,50.8c0,13.1,10.6,23.1,23.1,23.1c13.1,0,23.1-10.6,23.1-23.1s-10-23.1-23.1-23.1C10.6,27.6,0,38.3,0,50.8zM53.8,50.8c0,13.1,10.6,23.1,23.1,23.1S100,63.3,100,50.8S89.4,27.6,76.9,27.6C63.8,27.6,53.8,38.3,53.8,50.8z"/>
<g id="gmb_1_">
<path d="M86.3,13.5c-0.4-1.2-1.5-2.1-2.8-2.1H16.4c-1.3,0-2.4,0.9-2.8,2.1L6.3,38.9v0.7c0,2.9,1.2,5.5,3.3,7.4v36.6c0,3.6,2.9,6.5,6.4,6.5H84c3.6,0,6.4-2.9,6.4-6.5V47.1c2.1-1.9,3.3-4.6,3.3-7.5v-0.7L86.3,13.5z M84,87.7H16c-2.2,0-4-1.8-4-4v-35c1.3,0.6,2.8,1,4.3,1c2.5,0,4.8-0.9,6.7-2.5c1.8-1.6,3-3.9,3.3-6.3l0.1-3.1l1.8,0c-0.1,0.4,0,1.1,0,1.5c0,5.8,4.8,10.4,10.5,10.4s10.6-4.4,10.4-11.2h1.8l0,0.8c0,5.8,4.7,10.5,10.4,10.5S71.8,45,71.8,39.2c0-0.4-0.1-1.2-0.1-1.2l1.8,0l0.4,2.9c0.3,2.5,1.5,4.7,3.3,6.3c1.8,1.6,4.2,2.5,6.7,2.5c1.5,0,3-0.4,4.3-1v35C88,85.9,86.2,87.7,84,87.7z"/>
<path id="gmb" d="M85,69.3c0,8-6.5,14.6-14.5,14.6c-8,0-14.5-6.5-14.5-14.6s6.5-14.6,14.5-14.6c3.9,0,7.5,1.5,10.2,4.3l-3.1,3.1c-1.9-1.9-4.5-3-7.2-3c-5.6,0-10.2,4.6-10.2,10.2s4.6,10.2,10.2,10.2c4.8,0,8.9-3.4,9.9-8h-9.9v-4.4H85V69.3L85,69.3z"/>
</g>
<g id="houzz">
<polygon points="50,65.1 68.8,54 68.8,32.4 50,43.5 	"/>
<polygon points="50,21.7 68.8,32.4 68.8,10.6 	"/>
<polygon points="31.2,32.9 31.2,54.6 50,43.5 	"/>
<polygon points="50,-0.5 31.2,10.6 31.2,32.9 50,21.8 	"/>
<path d="M7.5,86.3V59.4h2.7v13.5c0.7-1,1.5-1.8,2.5-2.3c1-0.5,2.1-0.7,3.3-0.7c1.9,0,3.3,0.5,4.4,1.5c1,1,1.6,2.4,1.6,4.2v10.8h-2.8V77c0-1.6-0.3-2.8-1-3.6c-0.7-0.8-1.7-1.2-3.1-1.2c-0.8,0-1.5,0.2-2.2,0.4c-0.7,0.3-1.2,0.7-1.7,1.3c-0.3,0.4-0.6,0.9-0.7,1.4c-0.2,0.5-0.2,1.5-0.2,2.8v8.2H7.5L7.5,86.3z"/>
<path d="M24.5,78.4c0-1.2,0.2-2.3,0.7-3.3c0.4-1,1-2,1.9-2.8c0.8-0.8,1.8-1.4,2.8-1.9c1-0.4,2.2-0.6,3.3-0.6c1.2,0,2.3,0.2,3.3,0.7c1,0.4,2,1,2.8,1.9c0.8,0.8,1.4,1.7,1.9,2.7c0.4,1,0.7,2.1,0.7,3.3c0,1.2-0.2,2.2-0.7,3.3c-0.4,1-1,1.9-1.9,2.7c-0.8,0.8-1.8,1.5-2.8,1.9c-1,0.4-2.1,0.7-3.3,0.7c-1.2,0-2.3-0.2-3.3-0.7s-2-1.1-2.8-1.9c-0.8-0.8-1.4-1.8-1.9-2.8C24.7,80.7,24.5,79.6,24.5,78.4z M27.4,78.4c0,1.7,0.6,3.1,1.7,4.3c1.1,1.2,2.5,1.7,4.1,1.7c1.6,0,2.9-0.6,4.1-1.7s1.7-2.6,1.7-4.3c0-1.7-0.6-3.1-1.7-4.3c-1.1-1.2-2.5-1.7-4.1-1.7c-1.6,0-3,0.6-4.1,1.7C28,75.3,27.4,76.7,27.4,78.4z"/>
<path d="M47.1,70.4v7.8c0,2.3,0.3,3.9,1,4.8c0.7,0.9,1.8,1.4,3.4,1.4s2.7-0.5,3.4-1.4s1-2.5,1-4.8v-7.8h2.8v9.3c0,2.4-0.6,4.2-1.9,5.4c-1.2,1.2-3,1.9-5.4,1.9c-2.4,0-4.2-0.6-5.4-1.9c-1.2-1.2-1.9-3-1.9-5.4v-9.3H47.1L47.1,70.4z"/>
<path d="M61.8,86.3l9.1-13.5h-8.6v-2.4h13.4L66.6,84h9v2.4H61.8z"/>
<path d="M78.6,86.3l9.1-13.5h-8.6v-2.4h13.4L83.4,84h9v2.4H78.6z"/>
<polygon points="50,21.7 50,43.5 68.8,32.4 	"/>
</g>
<path id="instagram" fill-rule="evenodd" clip-rule="evenodd" d="M50,7C38.1,7,36.6,7.1,32,7.3c-4.7,0.2-7.8,1-10.6,2c-2.9,1.1-5.3,2.6-7.7,5c-2.4,2.4-3.9,4.9-5,7.7c-1.1,2.8-1.8,6-2,10.6c-0.2,4.7-0.3,6.2-0.3,18s0.1,13.4,0.3,18c0.2,4.7,1,7.8,2,10.6c1.1,2.9,2.6,5.3,5,7.7c2.4,2.4,4.9,3.9,7.7,5c2.8,1.1,6,1.8,10.6,2c4.7,0.2,6.2,0.3,18,0.3s13.4-0.1,18-0.3c4.7-0.2,7.8-1,10.6-2c2.9-1.1,5.3-2.6,7.7-5c2.4-2.4,3.9-4.9,5-7.7c1.1-2.8,1.8-6,2-10.6c0.2-4.7,0.3-6.2,0.3-18s-0.1-13.4-0.3-18c-0.2-4.7-1-7.8-2-10.6c-1.1-2.9-2.6-5.3-5-7.7c-2.4-2.4-4.9-3.9-7.7-5c-2.8-1.1-6-1.8-10.6-2C63.4,7,61.9,7,50,7z M50,14.9c11.7,0,13.1,0.1,17.7,0.3c4.3,0.2,6.6,0.9,8.1,1.5c2,0.8,3.5,1.7,5,3.3s2.5,3,3.3,5c0.6,1.5,1.3,3.9,1.5,8.1c0.2,4.6,0.3,6,0.3,17.7s-0.1,13.1-0.3,17.7c-0.2,4.3-0.9,6.6-1.5,8.1c-0.8,2-1.8,3.5-3.3,5c-1.5,1.5-3,2.5-5,3.3c-1.5,0.6-3.9,1.3-8.1,1.5c-4.6,0.2-6,0.3-17.7,0.3s-13.1-0.1-17.7-0.3c-4.3-0.2-6.6-0.9-8.1-1.5c-2.1-0.8-3.5-1.8-5-3.3c-1.5-1.5-2.5-3-3.3-5c-0.6-1.5-1.3-3.9-1.5-8.1c-0.2-4.6-0.2-6-0.2-17.7S14,37.6,14.2,33c0.2-4.3,0.9-6.6,1.5-8.1c0.8-2.1,1.8-3.5,3.3-5s3-2.5,5-3.3c1.5-0.6,3.8-1.3,8.1-1.5c4.6-0.2,6-0.2,17.7-0.2L50,14.9z M50,28.3c-12.4,0-22.5,10.1-22.5,22.5c0,12.4,10.1,22.5,22.5,22.5c12.4,0,22.5-10.1,22.5-22.5C72.5,38.3,62.4,28.3,50,28.3z M50,65.3c-8.1,0-14.6-6.5-14.6-14.6S41.9,36.2,50,36.2s14.6,6.5,14.6,14.6S58.1,65.3,50,65.3z M78.6,27.4c0,2.9-2.4,5.3-5.3,5.3c-2.9,0-5.3-2.4-5.3-5.3s2.4-5.3,5.3-5.3C76.2,22.1,78.6,24.5,78.6,27.4z"/>
<path id="linked_in" d="M90.6,59.5v30H73.2v-28c0-7-2.5-11.8-8.8-11.8c-4.8,0-7.7,3.2-8.9,6.4c-0.5,1.1-0.6,2.7-0.6,4.2v29.3H37.5c0,0,0.2-47.5,0-52.4h17.4v7.4c0,0.1-0.1,0.1-0.1,0.2h0.1v-0.2C57.2,41,61.3,36,70.6,36C82,36,90.6,43.4,90.6,59.5z M19.2,11.9c-6,0-9.9,3.9-9.9,9c0,5,3.8,9.1,9.6,9.1h0.1c6.1,0,9.9-4,9.9-9.1C28.9,15.8,25.2,11.9,19.2,11.9z M10.4,89.6h17.4V37.2H10.4V89.6z"/>
<path id="pinterest" d="M73,13.7c5.6,4.1,9.5,10.1,10.5,17.7l0,0c0.4,3,0.5,6.1,0.3,9.2c-0.5,7.2-2.9,14.2-6.8,19.5c-3.9,5.4-9.5,9.2-16.3,10.2c-1.7,0.2-3.5,0.3-5.3,0.2h0c-4.1-0.3-6.4-1.9-9.1-3.8c-0.5-0.4-1.1-0.7-1.6-1.1C43.7,71,42.5,76.3,40.7,81c-2,5.2-4.8,9.6-9,12.6l-1.2,0.9L30.2,93c-1.9-13.2,1-23.9,3.8-34.3c1-3.6,1.9-7.2,2.6-10.7c-1.7-3-2.1-6.9-1.5-10.6c0.4-2.6,1.3-5.1,2.6-7.1c1.4-2.1,3.2-3.7,5.4-4.3c1.7-0.5,3.6-0.4,5.7,0.4v0c6.8,2.7,4.5,10.2,2.1,17.7c-0.8,2.4-1.5,4.7-1.9,6.9c-0.9,4.4-0.4,8,4.6,9v0c2.8,0.6,5.2,0,7.4-1.3c2.9-1.8,5.3-5,6.9-8.9c1.6-3.9,2.5-8.5,2.5-12.9c0-5.8-1.4-11.3-4.6-14.5c-3.6-3.6-8-5.4-12.5-5.8c-4.4-0.3-8.9,0.7-12.8,2.7c-4,2.1-7.5,5.1-9.8,9c-2.5,4.1-3.8,9.1-2.9,14.5c0.3,1.6,1.1,2.9,1.8,4.2c1.7,2.8,3.2,5.3,0.3,10.5l-0.3,0.6l-0.7-0.1c-4.6-1-7.8-3.3-9.8-6.4c-2-3.1-2.8-7.1-2.9-11.7v0c0.1-8.6,3.2-16.3,8.4-22c5.2-5.7,12.6-9.6,21.2-10.5c0.8-0.1,1.7-0.2,2.5-0.2C49,7,49.9,7,50.7,7C59.2,7,67.1,9.3,73,13.7L73,13.7z"/>
<path id="tumblr" d="M59.3,94.5c-18.6,0-25.6-13.7-25.6-23.4V42.5h-8.8V31.2c13.2-4.8,16.4-16.8,17.2-23.6C42.1,7.2,42.5,7,42.7,7h12.8v22.3H73v13.2H55.5v27.2c0.1,3.6,1.4,8.6,8,8.6h0.3c2.3-0.1,5.4-0.7,7.1-1.5l4.2,12.5c-1.6,2.3-8.8,5-15.1,5.1L59.3,94.5L59.3,94.5z"/>
<path id="twitter" d="M93.7,23.1c-3.3,1.6-6.6,2.2-10.4,2.7c3.8-2.2,6.6-5.5,7.7-9.8c-3.3,2.2-7.1,3.3-11.5,4.4c-3.3-3.3-7.7-5.5-13.1-5.5c-9.3,0-17.5,8.2-17.5,18c0,1.6,0,2.7,0.5,3.8C34.7,36.3,21,29.1,12.3,18.2c-1.6,2.7-2.2,5.5-2.2,9.3c0,6,3.3,11.5,8.2,14.8c-2.7,0-5.5-1.1-8.2-2.2l0,0c0,8.8,6,15.9,14.2,17.5c-1.6,0.5-3.3,1.1-4.9,1.1c-1.1,0-2.2-0.5-3.3-0.5c2.2,7.1,8.7,12.6,17,12.6c-6,4.9-13.7,7.7-22.4,7.7c-1.6,0-2.7,0-4.4,0c8.2,4.9,17.5,8.2,27.3,8.2c32.8,0,50.9-27.3,50.9-50.9c0-0.5,0-1.6,0-2.2C88.3,30.2,91.6,27,93.7,23.1L93.7,23.1z"/>
<path id="vimeo" d="M93.7,30.5c-0.5,8.7-6.6,20.2-18,35c-12,15.3-21.9,23-30.1,23c-4.9,0-9.3-4.9-13.1-14.2l-7.1-25.7c-2.2-9.3-4.9-14.2-8.2-14.2c-0.5,0-2.7,1.6-7.1,4.4l-3.8-5.5c4.4-3.8,8.7-7.7,12.6-11.5c6-4.9,9.8-7.7,13.1-7.7C39,13.6,42.9,18,44.5,28.4c1.6,10.9,2.7,17.5,3.3,20.2c2.2,8.7,4.4,13.1,6.6,13.1c1.6,0,4.4-2.7,8.2-8.7s5.5-10.4,6-13.1c0.5-4.9-1.6-7.7-6-7.7c-2.2,0-4.4,0.5-6.6,1.6C60.9,19.6,69.1,12.5,81.1,13C89.9,13,94.3,19.1,93.7,30.5L93.7,30.5z"/>
<path id="yelp" fill-rule="evenodd" clip-rule="evenodd" d="M83.2,73.4c-0.5,3.5-7.7,12.7-11,14c-1.1,0.5-2.2,0.3-3.1-0.3c-0.6-0.4-1.1-1.3-8.9-14l-2.3-3.8c-0.9-1.4-0.7-3.1,0.4-4.5c1.1-1.3,2.7-1.8,4-1.3c0.1,0,5.8,1.9,5.8,1.9c13.1,4.3,13.5,4.5,14.1,4.9C83,71.2,83.4,72.2,83.2,73.4L83.2,73.4z M57,54.2c-0.9-1.4-0.9-3.1,0-4.2l3.6-5c8-10.9,8.4-11.5,9-11.8c0.9-0.6,2.1-0.7,3.2-0.1c3.2,1.5,9.6,11,10,14.7v0.1c0.1,1.2-0.4,2.3-1.3,2.9c-0.6,0.4-1.1,0.6-16,4.2c-2.4,0.6-3.7,0.9-4.4,1.2l0.1-0.1c-1.5,0.4-3.1-0.3-4-1.7L57,54.2z M47.9,48.6c-0.7,0.2-2.9,0.9-5.5-3.4c0,0-18-28.3-18.4-29.2c-0.3-1,0.1-2.1,0.9-3c2.7-2.8,17.2-6.8,21-5.9c1.2,0.3,2.1,1.1,2.4,2.2c0.2,1.2,2,27.5,2.2,33.4C50.7,47.7,48.6,48.4,47.9,48.6z M50.2,77.4c0,13.8-0.1,14.2-0.3,14.9c-0.4,1-1.3,1.7-2.5,1.9C44,94.8,33,90.7,30.7,88c-0.4-0.6-0.7-1.2-0.8-1.8c-0.1-0.4,0-0.9,0.2-1.3c0.3-0.7,0.7-1.3,10.5-12.8l2.9-3.4c1-1.3,2.7-1.6,4.4-1c1.6,0.6,2.6,2,2.5,3.4v6.1L50.2,77.4z M20.4,68.6c-1.1,0-2-0.7-2.6-1.7c-0.4-0.8-0.7-2.1-0.9-3.7C16.4,58.4,17,51.3,18.5,49c0.7-1,1.6-1.6,2.7-1.5c0.7,0,1.3,0.2,15.4,6l4.1,1.6c1.5,0.5,2.4,2.1,2.3,3.8c-0.1,1.7-1.1,3-2.5,3.4l-5.9,1.9c-13.1,4.2-13.5,4.3-14.2,4.3L20.4,68.6z M75,94.5L75,94.5L75,94.5L75,94.5z"/>
<path id="youtube" d="M75.2,71h-4.8v-2.8c0-1.3,1-2.2,2.2-2.2h0.3c1.3,0,2.2,1,2.2,2.2L75.2,71z M57.2,65c-1.3,0-2.2,0.8-2.2,1.8v13.6c0,1,1,1.8,2.2,1.8s2.2-0.8,2.2-1.8V66.9C59.4,65.8,58.5,65,57.2,65z M86.5,57.5v25.8c0,6.2-5.3,11.3-12,11.3h-49c-6.6,0-12-5.1-12-11.3V57.5c0-6.2,5.3-11.3,12-11.3h49.1C81.1,46.2,86.5,51.2,86.5,57.5z M28.7,86V58.8h6.1v-4H18.6v4h5.1V86H28.7zM47,62.9h-5.1v14.5c0,2.1,0.1,3.1,0,3.5c-0.4,1.2-2.2,2.3-3,0.1c-0.1-0.4,0-1.6,0-3.5V62.9h-5.1v14.4c0,2.2-0.1,3.9,0,4.6c0.1,1.4,0.1,2.8,1.3,3.7c2.2,1.7,6.6-0.3,7.8-2.6v3H47V62.9L47,62.9z M63.2,79.5V67.5c0-4.6-3.4-7.4-8.2-3.6v-8.9H50v31l4.2-0.1l0.4-1.9C59.8,88.8,63.2,85.4,63.2,79.5z M79.1,78h-3.8c0,0.2,0,0.3,0,0.5v2.1c0,1.2-1,2-2,2h-0.8c-1.2,0-2-1-2-2v-0.2V78v-2.9h8.7v-3.3c0-2.4-0.1-4.8-0.3-6.1c-0.6-4.4-6.7-5.1-9.8-2.8c-1,0.7-1.7,1.7-2.1,2.8c-0.4,1.3-0.7,2.9-0.7,5.2V78C66.2,89.9,80.8,88.3,79.1,78z M59.5,38.8c0.3,0.7,0.7,1.2,1.3,1.6c0.6,0.4,1.3,0.6,2,0.6c0.8,0,1.4-0.2,1.9-0.6c0.6-0.4,1.1-1,1.5-1.8l-0.1,1.9h5.6v-24h-4.5v18.8c0,1-0.9,1.8-1.8,1.8s-1.8-0.9-1.8-1.8V16.4h-4.7v16.2c0,2,0,3.4,0.1,4.2C59.1,37.5,59.3,38.2,59.5,38.8z M42.4,25.3c0-2.3,0.2-4.1,0.6-5.4c0.4-1.3,1.1-2.3,2-3.1c1-0.8,2.2-1.2,3.8-1.2c1.3,0,2.4,0.3,3.4,0.8c1,0.5,1.7,1.2,2.1,1.9c0.5,0.8,0.9,1.7,1.1,2.5c0.2,0.9,0.3,2.1,0.3,3.9v6.1c0,2.2-0.1,3.9-0.3,5c-0.2,1.1-0.6,2-1.1,2.9c-0.6,0.9-1.3,1.6-2.1,2c-0.9,0.4-1.9,0.7-3.1,0.7c-1.3,0-2.3-0.2-3.3-0.6c-0.9-0.4-1.6-1-2-1.7c-0.5-0.8-0.9-1.7-1.1-2.7c-0.2-1.1-0.3-2.6-0.3-4.8V25.3L42.4,25.3z M46.9,34.8c0,1.4,1,2.4,2.2,2.4c1.3,0,2.2-1.1,2.2-2.4V22c0-1.4-1-2.4-2.2-2.4c-1.3,0-2.2,1.1-2.2,2.4V34.8z M31.2,41.2h5.3V22.8L42.9,7h-5.8l-3.3,11.8L30.3,7h-5.7l6.7,15.8V41.2z"/>
</svg>