<svg alt="Find us on Angie's List" class="social-icon" version="1.1" xmlns="http://www.w3.org/2000/svg" xmlns:xlink="http://www.w3.org/1999/xlink" x="0px" y="0px" viewbox="0 0 100 100" xml:space="preserve">
<path class="fill" d="M99.1,37C96.2,27,87.2,20.1,76.7,20.1H23.3c-1.5,0-3,0.2-4.6,0.4C6.7,22.9-1.7,34.7,0.3,46.8c1.6,9.4,7.2,15.7,16.3,18.7c2.7,0.9,5.6,1.1,8.4,1c0.3,0,0.5,0.1,0.7,0.4c2.9,5.8,5.9,11.7,8.9,17.5c0.7,1.5,1.5,3,2.3,4.5c0.1-0.3,0.2-0.5,0.3-0.6c3.4-7,6.9-14.1,10.3-21.1c0.2-0.5,0.5-0.6,1-0.6c9.4,0,18.8,0,28.1,0c1.6,0,3.1-0.1,4.7-0.4C94.5,63.5,102.8,50,99.1,37z M78.5,56c-0.6,0.1-1.2,0.1-1.8,0.1c-11.5,0-23.1,0-34.6,0c-0.5,0-0.7,0.2-0.9,0.6c-1.4,4-2.9,7.9-4.3,11.9c0,0.2-0.1,0.3-0.2,0.5l0,0l0,0l0,0c-0.5-1.4-1-2.8-1.5-4.1c-1-2.8-2-5.6-3-8.4c-0.1-0.4-0.3-0.5-0.7-0.5c-2.7,0-5.4,0-8.1,0c-6.2,0-11.4-4.1-12.8-10.2C9.1,39,14,31.8,21,30.6c0.9-0.1,1.7-0.2,2.6-0.2h53.3c6.6,0,12.1,5,12.8,11.6C90.3,48.9,85.4,55.1,78.5,56z"/>
</svg>