<svg alt="Check out our Google my Business" version="1.1" xmlns="http://www.w3.org/2000/svg" xmlns:xlink="http://www.w3.org/1999/xlink" x="0px" y="0px" viewbox="0 0 100 100" xml:space="preserve">
<path class="fill" d="M86.3,13.5c-0.4-1.2-1.5-2.1-2.8-2.1H16.4c-1.3,0-2.4,0.9-2.8,2.1L6.3,38.9v0.7c0,2.9,1.2,5.5,3.3,7.4v36.6c0,3.6,2.9,6.5,6.4,6.5H84c3.6,0,6.4-2.9,6.4-6.5V47.1c2.1-1.9,3.3-4.6,3.3-7.5v-0.7L86.3,13.5z M84,87.7H16c-2.2,0-4-1.8-4-4v-35c1.3,0.6,2.8,1,4.3,1c2.5,0,4.8-0.9,6.7-2.5c1.8-1.6,3-3.9,3.3-6.3l0.1-3.1l1.8,0c-0.1,0.4,0,1.1,0,1.5c0,5.8,4.8,10.4,10.5,10.4s10.6-4.4,10.4-11.2h1.8l0,0.8c0,5.8,4.7,10.5,10.4,10.5S71.8,45,71.8,39.2c0-0.4-0.1-1.2-0.1-1.2l1.8,0l0.4,2.9c0.3,2.5,1.5,4.7,3.3,6.3c1.8,1.6,4.2,2.5,6.7,2.5c1.5,0,3-0.4,4.3-1v35C88,85.9,86.2,87.7,84,87.7z"/>
<path class="fill" d="M85,69.3c0,8-6.5,14.6-14.5,14.6c-8,0-14.5-6.5-14.5-14.6s6.5-14.6,14.5-14.6c3.9,0,7.5,1.5,10.2,4.3l-3.1,3.1c-1.9-1.9-4.5-3-7.2-3c-5.6,0-10.2,4.6-10.2,10.2s4.6,10.2,10.2,10.2c4.8,0,8.9-3.4,9.9-8h-9.9v-4.4H85V69.3L85,69.3z"/>
</svg>