<svg alt="Check out our Google my Business" class="social-icon" version="1.1" xmlns="http://www.w3.org/2000/svg" xmlns:xlink="http://www.w3.org/1999/xlink" x="0px" y="0px" viewBox="0 0 500 500" xml:space="preserve">
	<path class="fill" d="M457.5,37.1c-2-7.1-8.6-12.1-16-12.1H58.2c-7.4,0-13.9,4.9-16,12.1L0,182.5v3.9c0,16.3,7,31.6,18.7,42.5v209.2c0,20.4,16.5,36.9,36.7,36.9h388.8c20.3,0,36.7-16.6,36.7-36.9V228.9c11.8-10.8,18.9-26.3,18.9-42.6v-3.9L457.5,37.1z M444.3,461H55.5c-12.6,0-22.8-10.3-22.8-23V238.3c7.7,3.7,16.1,5.8,24.7,5.8c14,0,27.5-5.1,38-14.5s17.2-22.2,18.9-36.2l0.8-17.5l10.2,0.2c-0.3,2.5,0.1,6.1,0.1,8.4c0,33,27.2,59.4,60.1,59.4s60.3-25.1,59.4-64.2h10l0.2,4.3c0,33,26.7,59.9,59.6,59.9s59.6-26.8,59.6-59.8c0-2.4-0.4-6.9-0.4-6.9l10-0.2l2,16.3c1.7,14,8.4,26.8,18.9,36.2c10.5,9.3,24,14.5,38,14.5c8.5,0,16.9-2,24.5-5.7v199.8C467.2,450.7,456.9,461,444.3,461z"/>
	<path class="fill" d="M450,355.9c0,45.9-37.2,83.3-82.8,83.3c-45.6,0-82.8-37.4-82.8-83.3s37.2-83.3,82.8-83.3c22.1,0,42.9,8.7,58.5,24.4l-17.6,17.7c-11-11-25.5-17-41-17c-31.9,0-58,26.1-58,58.3s26,58.3,58,58.3c27.6,0,50.9-19.6,56.6-45.9h-56.6v-25.1H450L450,355.9L450,355.9z"/>
</svg>
