<svg alt="Find us on Houzz" class="social-icon" version="1.1" xmlns="http://www.w3.org/2000/svg" xmlns:xlink="http://www.w3.org/1999/xlink" x="0px" y="0px" viewbox="0 0 100 100" xml:space="preserve">
<polygon class="fill1" points="50,65.1 68.8,54 68.8,32.4 50,43.5 	"/>
<polygon class="fill1" points="50,21.7 68.8,32.4 68.8,10.6 	"/>
<polygon class="fill1" points="31.2,32.9 31.2,54.6 50,43.5 	"/>
<polygon class="fill1" points="50,-0.5 31.2,10.6 31.2,32.9 50,21.8 	"/>
<path class="fill2" d="M7.5,86.3V59.4h2.7v13.5c0.7-1,1.5-1.8,2.5-2.3c1-0.5,2.1-0.7,3.3-0.7c1.9,0,3.3,0.5,4.4,1.5c1,1,1.6,2.4,1.6,4.2v10.8h-2.8V77c0-1.6-0.3-2.8-1-3.6c-0.7-0.8-1.7-1.2-3.1-1.2c-0.8,0-1.5,0.2-2.2,0.4c-0.7,0.3-1.2,0.7-1.7,1.3c-0.3,0.4-0.6,0.9-0.7,1.4c-0.2,0.5-0.2,1.5-0.2,2.8v8.2H7.5L7.5,86.3z"/>
<path class="fill2" d="M24.5,78.4c0-1.2,0.2-2.3,0.7-3.3c0.4-1,1-2,1.9-2.8c0.8-0.8,1.8-1.4,2.8-1.9c1-0.4,2.2-0.6,3.3-0.6c1.2,0,2.3,0.2,3.3,0.7c1,0.4,2,1,2.8,1.9c0.8,0.8,1.4,1.7,1.9,2.7c0.4,1,0.7,2.1,0.7,3.3c0,1.2-0.2,2.2-0.7,3.3c-0.4,1-1,1.9-1.9,2.7c-0.8,0.8-1.8,1.5-2.8,1.9c-1,0.4-2.1,0.7-3.3,0.7c-1.2,0-2.3-0.2-3.3-0.7s-2-1.1-2.8-1.9c-0.8-0.8-1.4-1.8-1.9-2.8C24.7,80.7,24.5,79.6,24.5,78.4z M27.4,78.4c0,1.7,0.6,3.1,1.7,4.3c1.1,1.2,2.5,1.7,4.1,1.7c1.6,0,2.9-0.6,4.1-1.7s1.7-2.6,1.7-4.3c0-1.7-0.6-3.1-1.7-4.3c-1.1-1.2-2.5-1.7-4.1-1.7c-1.6,0-3,0.6-4.1,1.7C28,75.3,27.4,76.7,27.4,78.4z"/>
<path class="fill2" d="M47.1,70.4v7.8c0,2.3,0.3,3.9,1,4.8c0.7,0.9,1.8,1.4,3.4,1.4s2.7-0.5,3.4-1.4s1-2.5,1-4.8v-7.8h2.8v9.3c0,2.4-0.6,4.2-1.9,5.4c-1.2,1.2-3,1.9-5.4,1.9c-2.4,0-4.2-0.6-5.4-1.9c-1.2-1.2-1.9-3-1.9-5.4v-9.3H47.1L47.1,70.4z"/>
<path class="fill2" d="M61.8,86.3l9.1-13.5h-8.6v-2.4h13.4L66.6,84h9v2.4H61.8z"/>
<path class="fill2" d="M78.6,86.3l9.1-13.5h-8.6v-2.4h13.4L83.4,84h9v2.4H78.6z"/>
<polygon class="fill3" points="50,21.7 50,43.5 68.8,32.4 	"/>
</svg>