<svg alt="Find us on Houzz" version="1.1" class="social-icon" xmlns="http://www.w3.org/2000/svg" xmlns:xlink="http://www.w3.org/1999/xlink" x="0px" y="0px" viewBox="0 0 390.4 401.7" xml:space="preserve">
	<polygon class="fill1" points="195.3,301 281.4,250 281.4,150.9 195.3,201.9 "/>
	<polygon class="fill1" points="195.3,102.1 281.4,150.9 281.4,51.1 "/>
	<polygon class="fill1" points="109,153.3 109,253 195.2,202 "/>
	<polygon class="fill1" points="195.2,0 109,51 109,153.3 195.2,102.3 "/>
	<path class="fill2" d="M0,398.6V274.9h12.2v61.9c3.1-4.7,6.9-8.2,11.3-10.4c4.4-2.3,9.5-3.4,15.3-3.4c8.6,0,15.3,2.3,20.2,6.9c4.8,4.6,7.3,10.9,7.3,19.1v49.7H53.5v-43c0-7.4-1.6-12.9-4.7-16.5c-3.1-3.6-7.9-5.4-14.4-5.4c-3.7,0-7.1,0.7-10.2,2s-5.6,3.3-7.6,5.8c-1.5,1.9-2.6,4.1-3.3,6.5c-0.7,2.4-1,6.7-1,12.8v37.7L0,398.6L0,398.6z"/>
	<path class="fill2" d="M78.2,362.3c0-5.4,1-10.4,3-15.2c2-4.8,4.8-9,8.6-12.7c3.8-3.7,8.1-6.6,12.8-8.5c4.8-1.9,9.9-2.9,15.3-2.9c5.3,0,10.4,1,15.1,3c4.8,2,9.1,4.8,13,8.6c3.8,3.7,6.6,7.9,8.6,12.6c2,4.8,3,9.8,3,15.1c0,5.3-1,10.3-3,15c-2,4.7-4.8,8.9-8.6,12.6c-3.9,3.8-8.2,6.8-13,8.8c-4.8,2-9.8,3-15,3c-5.4,0-10.5-1-15.3-3c-4.8-2-9.1-4.9-12.9-8.6c-3.8-3.8-6.6-8.1-8.6-12.8C79.2,372.7,78.2,367.6,78.2,362.3z M91.5,362.3c0,7.7,2.6,14.2,7.7,19.6c5.2,5.3,11.4,8,18.8,8c7.3,0,13.5-2.7,18.6-8c5.1-5.3,7.7-11.9,7.7-19.6c0-7.7-2.6-14.2-7.7-19.6c-5.1-5.3-11.3-8-18.6-8c-7.4,0-13.7,2.7-18.8,8C94,348,91.5,354.5,91.5,362.3z"/>
	<path class="fill2" d="M181.9,325.6v35.9c0,10.5,1.6,17.8,4.7,22c3.1,4.2,8.4,6.3,15.8,6.3c7.4,0,12.6-2.1,15.7-6.2c3.1-4.1,4.6-11.5,4.6-22.1v-35.9h12.8v42.6c0,11-2.8,19.3-8.5,25c-5.6,5.7-13.9,8.5-24.9,8.5c-10.9,0-19.1-2.9-24.7-8.5c-5.6-5.7-8.5-14-8.5-25v-42.6L181.9,325.6L181.9,325.6z"/>
	<path class="fill2" d="M249.3,398.6l41.8-62.1h-39.3v-10.9h61.3l-41.8,62.1h41.5v10.9H249.3z"/>
	<path class="fill2" d="M326.6,398.6l41.8-62.1h-39.3v-10.9h61.3l-41.8,62.1h41.5v10.9H326.6z"/>
	<polygon class="fill3" points="195.3,102.1 195.3,201.9 281.4,150.9 "/>
</svg>		
