<svg alt="Follow us on Instagram" class="social-icon" version="1.1" xmlns="http://www.w3.org/2000/svg" xmlns:xlink="http://www.w3.org/1999/xlink" x="0px" y="0px" viewbox="0 0 100 100" xml:space="preserve">
<path class="fill" fill-rule="evenodd" clip-rule="evenodd" d="M50,7C38.1,7,36.6,7.1,32,7.3c-4.7,0.2-7.8,1-10.6,2c-2.9,1.1-5.3,2.6-7.7,5c-2.4,2.4-3.9,4.9-5,7.7c-1.1,2.8-1.8,6-2,10.6c-0.2,4.7-0.3,6.2-0.3,18s0.1,13.4,0.3,18c0.2,4.7,1,7.8,2,10.6c1.1,2.9,2.6,5.3,5,7.7c2.4,2.4,4.9,3.9,7.7,5c2.8,1.1,6,1.8,10.6,2c4.7,0.2,6.2,0.3,18,0.3s13.4-0.1,18-0.3c4.7-0.2,7.8-1,10.6-2c2.9-1.1,5.3-2.6,7.7-5c2.4-2.4,3.9-4.9,5-7.7c1.1-2.8,1.8-6,2-10.6c0.2-4.7,0.3-6.2,0.3-18s-0.1-13.4-0.3-18c-0.2-4.7-1-7.8-2-10.6c-1.1-2.9-2.6-5.3-5-7.7c-2.4-2.4-4.9-3.9-7.7-5c-2.8-1.1-6-1.8-10.6-2C63.4,7,61.9,7,50,7z M50,14.9c11.7,0,13.1,0.1,17.7,0.3c4.3,0.2,6.6,0.9,8.1,1.5c2,0.8,3.5,1.7,5,3.3s2.5,3,3.3,5c0.6,1.5,1.3,3.9,1.5,8.1c0.2,4.6,0.3,6,0.3,17.7s-0.1,13.1-0.3,17.7c-0.2,4.3-0.9,6.6-1.5,8.1c-0.8,2-1.8,3.5-3.3,5c-1.5,1.5-3,2.5-5,3.3c-1.5,0.6-3.9,1.3-8.1,1.5c-4.6,0.2-6,0.3-17.7,0.3s-13.1-0.1-17.7-0.3c-4.3-0.2-6.6-0.9-8.1-1.5c-2.1-0.8-3.5-1.8-5-3.3c-1.5-1.5-2.5-3-3.3-5c-0.6-1.5-1.3-3.9-1.5-8.1c-0.2-4.6-0.2-6-0.2-17.7S14,37.6,14.2,33c0.2-4.3,0.9-6.6,1.5-8.1c0.8-2.1,1.8-3.5,3.3-5s3-2.5,5-3.3c1.5-0.6,3.8-1.3,8.1-1.5c4.6-0.2,6-0.2,17.7-0.2L50,14.9z M50,28.3c-12.4,0-22.5,10.1-22.5,22.5c0,12.4,10.1,22.5,22.5,22.5c12.4,0,22.5-10.1,22.5-22.5C72.5,38.3,62.4,28.3,50,28.3z M50,65.3c-8.1,0-14.6-6.5-14.6-14.6S41.9,36.2,50,36.2s14.6,6.5,14.6,14.6S58.1,65.3,50,65.3z M78.6,27.4c0,2.9-2.4,5.3-5.3,5.3c-2.9,0-5.3-2.4-5.3-5.3s2.4-5.3,5.3-5.3C76.2,22.1,78.6,24.5,78.6,27.4z"/>
</svg>