<svg alt="Connect with us on LinkedIn" class="social-icon" version="1.1" xmlns="http://www.w3.org/2000/svg" xmlns:xlink="http://www.w3.org/1999/xlink" x="0px" y="0px" viewbox="0 0 100 100" xml:space="preserve">
<path class="fill" d="M90.6,59.5v30H73.2v-28c0-7-2.5-11.8-8.8-11.8c-4.8,0-7.7,3.2-8.9,6.4c-0.5,1.1-0.6,2.7-0.6,4.2v29.3H37.5c0,0,0.2-47.5,0-52.4h17.4v7.4c0,0.1-0.1,0.1-0.1,0.2h0.1v-0.2C57.2,41,61.3,36,70.6,36C82,36,90.6,43.4,90.6,59.5z M19.2,11.9c-6,0-9.9,3.9-9.9,9c0,5,3.8,9.1,9.6,9.1h0.1c6.1,0,9.9-4,9.9-9.1C28.9,15.8,25.2,11.9,19.2,11.9z M10.4,89.6h17.4V37.2H10.4V89.6z"/>
</svg>