<svg alt="Follow us on Pinterest" class="social-icon" version="1.1" xmlns="http://www.w3.org/2000/svg" xmlns:xlink="http://www.w3.org/1999/xlink" x="0px" y="0px" viewBox="0 0 1176.9 1516.5" xml:space="preserve">
	<path class="fill" d="M987.5,116.5c96.9,71.7,164.3,175,182.4,306.5l0,0c7.3,52.8,8.8,106.3,4.8,158.7c-9.5,125.4-50.4,245.6-118,338.6c-68.3,94-163.9,160.3-282.1,176.6c-29.3,4-59.8,5-91.5,2.6H683c-71.1-5.7-110.7-33.1-157.1-65.2c-9-6.2-18.2-12.6-27.9-19c-18.4,94.1-39.3,185.9-71.2,267c-35.1,89.3-83.5,165.7-156.1,218.5l-21.5,15.6l-3.7-26.4c-32.2-228.7,17.5-414.3,65.8-594.7c16.7-62.3,33.2-124,45.8-185.4c-28.6-51.7-36.1-119.2-26.3-183c6.9-45.2,22.5-88.8,45.5-123.9c23.7-36.1,55.2-63.4,93.4-74.6c29.6-8.6,62.6-7.5,98.3,6.6v0.1c118.5,47,77.2,176.8,35.8,306.6c-13,40.8-26,81.6-33.6,119.6c-15.2,76.2-6.5,138.4,79.4,155.6v0.1c48.1,9.7,90.9,0.7,127.9-21.7c50.9-30.7,91.1-86.6,118.9-153.5c28.3-68.1,43.5-147.4,43.9-223.6c0.5-100.6-24.7-195.4-79.7-251.3c-61.9-62.8-138.1-94.2-216.5-100.3c-75.6-5.9-153.4,11.6-222.4,47.2c-69.1,35.6-129.5,89.1-170.2,155.2c-44,71.3-65.2,157.3-50,251.2c4.6,28.3,18.2,50.8,31.3,72.4c29,47.7,55.6,91.7,4.6,182.3l-5.8,10.3l-11.5-2.5C139.7,864.9,85.2,825.9,50.3,771C16,717,1.3,647.9,0,568.8v-0.4c1.7-149.5,55.5-281.7,145.9-380.9C236.7,87.9,364.4,21.7,513.3,5c14.6-1.6,29.3-2.9,44-3.7C571.7,0.5,586.3,0,601.2,0C747.1-0.3,884.1,40,987.5,116.5L987.5,116.5z"/>
</svg>