<svg alt="Check out our Vimeo Channel" class="social-icon" version="1.1" xmlns="http://www.w3.org/2000/svg" xmlns:xlink="http://www.w3.org/1999/xlink" x="0px" y="0px" viewbox="0 0 100 100" xml:space="preserve">
<path class="fill" d="M93.7,30.5c-0.5,8.7-6.6,20.2-18,35c-12,15.3-21.9,23-30.1,23c-4.9,0-9.3-4.9-13.1-14.2l-7.1-25.7c-2.2-9.3-4.9-14.2-8.2-14.2c-0.5,0-2.7,1.6-7.1,4.4l-3.8-5.5c4.4-3.8,8.7-7.7,12.6-11.5c6-4.9,9.8-7.7,13.1-7.7C39,13.6,42.9,18,44.5,28.4c1.6,10.9,2.7,17.5,3.3,20.2c2.2,8.7,4.4,13.1,6.6,13.1c1.6,0,4.4-2.7,8.2-8.7s5.5-10.4,6-13.1c0.5-4.9-1.6-7.7-6-7.7c-2.2,0-4.4,0.5-6.6,1.6C60.9,19.6,69.1,12.5,81.1,13C89.9,13,94.3,19.1,93.7,30.5L93.7,30.5z"/>
</svg>