<svg version="1.1" alt="Check out our Vimeo Channel" class="social-icon" xmlns="http://www.w3.org/2000/svg" xmlns:xlink="http://www.w3.org/1999/xlink" x="0px" y="0px" viewBox="0 0 16 13.9" xml:space="preserve">
	<path class="fill" d="M16,3.2c-0.1,1.6-1.2,3.7-3.3,6.4c-2.2,2.8-4,4.2-5.5,4.2c-0.9,0-1.7-0.9-2.4-2.6L3.5,6.5C3.1,4.8,2.6,3.9,2,3.9c-0.1,0-0.5,0.3-1.3,0.8L0,3.7C0.8,3,1.6,2.3,2.3,1.6c1.1-0.9,1.8-1.4,2.4-1.4C6,0.1,6.7,0.9,7,2.8c0.3,2,0.5,3.2,0.6,3.7C8,8.1,8.4,8.9,8.8,8.9c0.3,0,0.8-0.5,1.5-1.6c0.7-1.1,1-1.9,1.1-2.4c0.1-0.9-0.3-1.4-1.1-1.4c-0.4,0-0.8,0.1-1.2,0.3C10,1.2,11.5-0.1,13.7,0C15.3,0,16.1,1.1,16,3.2L16,3.2z"/>
</svg>
