<svg alt="Find us on Yelp" class="social-icon" version="1.1" xmlns="http://www.w3.org/2000/svg" xmlns:xlink="http://www.w3.org/1999/xlink" x="0px" y="0px" viewbox="0 0 100 100" xml:space="preserve">
<path class="fill" fill-rule="evenodd" clip-rule="evenodd" d="M83.2,73.4c-0.5,3.5-7.7,12.7-11,14c-1.1,0.5-2.2,0.3-3.1-0.3c-0.6-0.4-1.1-1.3-8.9-14l-2.3-3.8c-0.9-1.4-0.7-3.1,0.4-4.5c1.1-1.3,2.7-1.8,4-1.3c0.1,0,5.8,1.9,5.8,1.9c13.1,4.3,13.5,4.5,14.1,4.9C83,71.2,83.4,72.2,83.2,73.4L83.2,73.4z M57,54.2c-0.9-1.4-0.9-3.1,0-4.2l3.6-5c8-10.9,8.4-11.5,9-11.8c0.9-0.6,2.1-0.7,3.2-0.1c3.2,1.5,9.6,11,10,14.7v0.1c0.1,1.2-0.4,2.3-1.3,2.9c-0.6,0.4-1.1,0.6-16,4.2c-2.4,0.6-3.7,0.9-4.4,1.2l0.1-0.1c-1.5,0.4-3.1-0.3-4-1.7L57,54.2z M47.9,48.6c-0.7,0.2-2.9,0.9-5.5-3.4c0,0-18-28.3-18.4-29.2c-0.3-1,0.1-2.1,0.9-3c2.7-2.8,17.2-6.8,21-5.9c1.2,0.3,2.1,1.1,2.4,2.2c0.2,1.2,2,27.5,2.2,33.4C50.7,47.7,48.6,48.4,47.9,48.6z M50.2,77.4c0,13.8-0.1,14.2-0.3,14.9c-0.4,1-1.3,1.7-2.5,1.9C44,94.8,33,90.7,30.7,88c-0.4-0.6-0.7-1.2-0.8-1.8c-0.1-0.4,0-0.9,0.2-1.3c0.3-0.7,0.7-1.3,10.5-12.8l2.9-3.4c1-1.3,2.7-1.6,4.4-1c1.6,0.6,2.6,2,2.5,3.4v6.1L50.2,77.4z M20.4,68.6c-1.1,0-2-0.7-2.6-1.7c-0.4-0.8-0.7-2.1-0.9-3.7C16.4,58.4,17,51.3,18.5,49c0.7-1,1.6-1.6,2.7-1.5c0.7,0,1.3,0.2,15.4,6l4.1,1.6c1.5,0.5,2.4,2.1,2.3,3.8c-0.1,1.7-1.1,3-2.5,3.4l-5.9,1.9c-13.1,4.2-13.5,4.3-14.2,4.3L20.4,68.6z M75,94.5L75,94.5L75,94.5L75,94.5z"/>
</svg>